<svg id="Capa_1" enable-background="new 0 0 512.061 512.061" height="512" viewBox="0 0 512.061 512.061" width="512" xmlns="http://www.w3.org/2000/svg" xmlns:xlink="http://www.w3.org/1999/xlink"><linearGradient id="SVGID_1_" gradientUnits="userSpaceOnUse" x1="4.514" x2="477.475" y1="507.295" y2="34.334"><stop offset="0" stop-color="#fd3a84"/><stop offset="1" stop-color="#ffa68d"/></linearGradient><g><g><path d="m339.211 152.13-148.491 148.491c-5.859 5.859-5.859 15.352 0 21.211 2.93 2.93 6.768 4.395 10.605 4.395s7.676-1.465 10.605-4.395l148.491-148.491c5.859-5.859 5.859-15.352 0-21.211s-15.351-5.859-21.21 0zm159.096-95.464-42.422-43.922c-17.007-17.007-46.685-16.978-63.633 0l-350.024 351.51c-2.856 2.856-3.732 6.242-3.779 6.344l-37.828 122.656c-1.582 5.288.368 10.516 4.265 14.412 3.916 3.916 9.64 5.341 14.912 3.765 0 0 122.17-37.333 122.178-37.336.103-.046 3.459-.909 6.322-3.772l350.01-350.01c8.496-8.496 13.684-19.805 13.684-31.831-.001-12.011-5.189-23.32-13.685-31.816zm-459.448 417.026 21.131-70.466 49.335 49.335zm98.833-35.185-63.647-63.647 286.389-286.365 63.629 63.629zm339.404-339.419-31.823 31.824-63.628-63.628 31.832-31.83c5.64-5.684 15.498-5.654 21.196 0l42.422 42.422c5.894 5.924 5.836 15.377.001 21.212z" fill="url(#SVGID_1_)"/></g></g></svg>